<svg width="48px" height="48px" viewBox="0 0 48 48" xmlns="http://www.w3.org/2000/svg"><path cx="512" cy="512" r="512" style="fill:#f36c21" d="M48 24A24 24 0 0 1 24 48A24 24 0 0 1 0 24A24 24 0 0 1 48 24z"/><path d="M31.463 17.419h0.141c0.173 0.014 0.347 0.098 0.455 0.234 0.159 0.197 0.202 0.459 0.216 0.708 0.038 0.755 -0.127 1.505 -0.342 2.227 -0.277 0.956 -0.666 1.875 -0.984 2.817 -0.056 0.164 -0.112 0.333 -0.155 0.502 -0.07 0.281 -0.061 0.577 -0.07 0.867 -0.009 0.272 0.009 0.544 0.061 0.811 0.028 0.145 0.089 0.3 0.202 0.403 0.103 0.094 0.253 0.136 0.389 0.094 0.183 -0.056 0.328 -0.197 0.459 -0.333 0.183 -0.202 0.356 -0.408 0.483 -0.647 0.178 -0.319 0.281 -0.67 0.333 -1.031 0.07 -0.544 0.127 -1.097 0.323 -1.612 0.075 -0.197 0.169 -0.398 0.347 -0.52 0.239 -0.169 0.6 -0.098 0.783 0.127 0.089 0.112 0.112 0.258 0.112 0.394 -0.009 0.183 -0.047 0.366 -0.108 0.539 -0.211 0.619 -0.333 1.27 -0.309 1.927 0.005 0.15 0.019 0.309 0.098 0.445 0.066 0.112 0.178 0.202 0.309 0.202 0.15 0 0.281 -0.089 0.375 -0.197 0.145 -0.164 0.262 -0.352 0.356 -0.548 0.188 -0.398 0.277 -0.834 0.356 -1.266 0.066 -0.366 0.131 -0.731 0.234 -1.087 0.056 -0.183 0.127 -0.366 0.262 -0.506 0.089 -0.098 0.225 -0.136 0.352 -0.136 0.131 0.005 0.253 0.08 0.342 0.178 0.122 0.136 0.145 0.323 0.131 0.497 -0.131 1.036 -0.277 2.072 -0.394 3.108 -0.084 0.647 -0.159 1.294 -0.216 1.941 -0.005 0.07 0.08 0.112 0.127 0.066 0.338 -0.323 0.67 -0.661 0.923 -1.055 0.117 -0.178 0.202 -0.37 0.314 -0.548 0.047 -0.08 0.103 -0.159 0.192 -0.188 0.136 -0.066 0.309 -0.047 0.427 0.047 0.089 0.066 0.136 0.173 0.15 0.281v0.127c-0.028 0.216 -0.155 0.398 -0.248 0.586 -0.258 0.516 -0.614 0.984 -1.059 1.355 -0.319 0.272 -0.694 0.478 -1.087 0.619 -0.023 0.009 -0.061 0.014 -0.066 0.047 -0.145 0.595 -0.469 1.144 -0.905 1.57 -0.483 0.478 -1.106 0.806 -1.767 0.961 -0.361 0.08 -0.741 0.112 -1.106 0.047 -0.375 -0.07 -0.741 -0.244 -1.008 -0.516 -0.244 -0.244 -0.408 -0.567 -0.436 -0.914 -0.028 -0.314 0.052 -0.633 0.202 -0.909 0.173 -0.314 0.436 -0.577 0.745 -0.759 0.295 -0.178 0.633 -0.262 0.966 -0.305 0.38 -0.042 0.769 -0.042 1.153 -0.009 0.239 0.019 0.478 0.042 0.717 0.061 0.131 0.009 0.277 0.056 0.403 -0.009 0.089 -0.042 0.117 -0.15 0.131 -0.239 0.056 -0.422 0.141 -0.848 0.089 -1.28 -0.009 -0.056 -0.023 -0.141 -0.094 -0.145 -0.084 0.038 -0.127 0.127 -0.173 0.202 -0.145 0.281 -0.417 0.497 -0.731 0.558s-0.656 -0.098 -0.802 -0.38c-0.07 -0.117 -0.103 -0.258 -0.206 -0.356 -0.07 -0.066 -0.173 -0.066 -0.258 -0.028 -0.15 0.066 -0.248 0.202 -0.37 0.305 -0.319 0.286 -0.722 0.502 -1.158 0.525 -0.506 0.033 -1.027 -0.253 -1.237 -0.722 -0.028 -0.066 -0.052 -0.159 -0.136 -0.169 -0.094 -0.014 -0.164 0.061 -0.216 0.127 -0.248 0.314 -0.483 0.652 -0.811 0.886 -0.211 0.15 -0.464 0.253 -0.727 0.248 -0.277 -0.005 -0.553 -0.155 -0.684 -0.398 -0.061 -0.108 -0.084 -0.244 -0.183 -0.328 -0.075 -0.066 -0.192 -0.056 -0.272 -0.005 -0.122 0.07 -0.192 0.197 -0.291 0.295 -0.272 0.272 -0.666 0.408 -1.045 0.37 -0.459 -0.047 -0.877 -0.366 -1.045 -0.797 -0.023 -0.061 -0.056 -0.131 -0.122 -0.15 -0.052 -0.019 -0.094 0.019 -0.127 0.052 -0.253 0.234 -0.506 0.473 -0.811 0.637 -0.309 0.164 -0.652 0.272 -1.003 0.262 -0.37 0.005 -0.741 -0.108 -1.041 -0.319 -0.253 -0.173 -0.455 -0.417 -0.572 -0.703 -0.033 -0.075 -0.075 -0.159 -0.159 -0.178 -0.075 -0.019 -0.141 0.038 -0.183 0.094 -0.127 0.178 -0.291 0.333 -0.473 0.45 -0.281 0.183 -0.609 0.309 -0.952 0.309 -0.262 0 -0.525 -0.098 -0.712 -0.281 -0.202 -0.197 -0.309 -0.473 -0.352 -0.75 -0.052 -0.361 0.023 -0.727 0.127 -1.069 0.066 -0.225 0.15 -0.441 0.202 -0.67 0.028 -0.117 0.038 -0.244 -0.014 -0.352 -0.042 -0.084 -0.131 -0.136 -0.216 -0.173 -0.094 -0.038 -0.192 0.014 -0.258 0.075s-0.098 0.141 -0.136 0.22c-0.23 0.553 -0.539 1.073 -0.919 1.537 -0.366 0.45 -0.802 0.839 -1.27 1.181 -0.534 0.38 -1.148 0.656 -1.8 0.745 -0.473 0.066 -0.966 0.028 -1.425 -0.108 -0.272 -0.08 -0.539 -0.192 -0.773 -0.356 -0.403 -0.281 -0.727 -0.67 -0.956 -1.102 -0.178 -0.333 -0.314 -0.689 -0.413 -1.055 -0.136 -0.52 -0.183 -1.055 -0.206 -1.589v-0.366c0.009 -0.394 0.047 -0.788 0.127 -1.172 0.141 -0.698 0.394 -1.369 0.736 -1.992 0.272 -0.488 0.595 -0.947 1.003 -1.327 0.445 -0.417 0.984 -0.741 1.58 -0.872 0.567 -0.127 1.177 -0.094 1.706 0.15 0.159 0.07 0.3 0.173 0.469 0.225 0.117 0.038 0.253 0.023 0.352 -0.052 0.15 -0.117 0.22 -0.305 0.347 -0.445 0.159 -0.173 0.417 -0.244 0.642 -0.178 0.211 0.061 0.375 0.244 0.427 0.455 0.033 0.141 0.014 0.286 -0.028 0.422 -0.066 0.192 -0.173 0.366 -0.277 0.539 -0.342 0.591 -0.6 1.228 -0.764 1.889 -0.052 0.202 -0.094 0.413 -0.173 0.605 -0.075 0.183 -0.192 0.356 -0.361 0.469 -0.145 0.098 -0.338 0.145 -0.511 0.094 -0.159 -0.047 -0.281 -0.178 -0.347 -0.328 -0.075 -0.159 -0.098 -0.342 -0.075 -0.52 0.047 -0.417 0.277 -0.797 0.286 -1.223 0.009 -0.239 -0.07 -0.488 -0.258 -0.642 -0.262 -0.225 -0.633 -0.286 -0.966 -0.239 -0.394 0.052 -0.764 0.239 -1.055 0.506 -0.314 0.291 -0.548 0.656 -0.736 1.036 -0.544 1.087 -0.783 2.334 -0.642 3.544 0.047 0.394 0.141 0.788 0.328 1.144 0.117 0.225 0.272 0.427 0.464 0.586 0.248 0.206 0.548 0.347 0.867 0.408 0.455 0.089 0.933 0.028 1.359 -0.136 0.572 -0.22 1.069 -0.614 1.462 -1.078 0.211 -0.239 0.394 -0.502 0.572 -0.769 0.178 -0.248 0.366 -0.511 0.436 -0.816 0.047 -0.202 0.005 -0.408 -0.042 -0.605 -0.033 -0.272 0.07 -0.548 0.248 -0.75 0.112 -0.117 0.253 -0.225 0.417 -0.258 0.155 -0.028 0.328 0 0.459 0.098 0.145 0.103 0.22 0.3 0.169 0.473 -0.033 0.112 -0.07 0.23 -0.038 0.347 0.033 0.098 0.131 0.159 0.23 0.164 0.225 0.019 0.459 -0.023 0.675 0.052 0.253 0.098 0.478 0.3 0.563 0.567 0.056 0.178 0.075 0.38 0.019 0.558 -0.098 0.347 -0.22 0.689 -0.286 1.045 -0.019 0.117 -0.038 0.239 -0.005 0.356 0.019 0.084 0.094 0.159 0.183 0.164 0.155 0.014 0.295 -0.07 0.403 -0.173 0.22 -0.22 0.366 -0.502 0.469 -0.792 0.127 -0.352 0.192 -0.722 0.286 -1.083 0.098 -0.37 0.248 -0.731 0.483 -1.036 0.347 -0.459 0.909 -0.755 1.491 -0.741 0.323 0.005 0.642 0.131 0.872 0.366 0.192 0.197 0.295 0.464 0.338 0.736 0.07 0.459 -0.014 0.942 -0.225 1.359 -0.291 0.572 -0.886 0.98 -1.528 1.031 -0.094 0.009 -0.202 0.005 -0.272 0.075 -0.061 0.061 -0.056 0.155 -0.047 0.234 0.023 0.216 0.094 0.436 0.239 0.605 0.169 0.173 0.422 0.295 0.67 0.239 0.286 -0.061 0.53 -0.244 0.731 -0.441 0.192 -0.192 0.361 -0.408 0.516 -0.633 0.216 -0.309 0.347 -0.666 0.478 -1.013 0.127 -0.342 0.244 -0.689 0.455 -0.989 0.169 -0.253 0.389 -0.473 0.652 -0.633 0.291 -0.183 0.637 -0.277 0.984 -0.258 0.108 0.005 0.23 0.009 0.319 -0.056 0.08 -0.061 0.108 -0.169 0.108 -0.267 0 -0.178 0.019 -0.352 0.033 -0.53 0.023 -0.277 0.047 -0.553 0.084 -0.825 0.08 -0.684 0.22 -1.359 0.403 -2.02 0.094 -0.333 0.216 -0.67 0.427 -0.952 0.089 -0.127 0.197 -0.248 0.338 -0.323 0.136 -0.08 0.309 -0.075 0.455 -0.033 0.188 0.056 0.309 0.234 0.384 0.403 0.136 0.333 0.098 0.703 0.07 1.055 -0.038 0.553 -0.169 1.097 -0.281 1.641 -0.098 0.478 -0.178 0.961 -0.267 1.439 -0.122 0.656 -0.239 1.317 -0.361 1.973 -0.103 0.539 -0.22 1.087 -0.155 1.641 0.019 0.145 0.038 0.305 0.136 0.417 0.07 0.08 0.188 0.098 0.281 0.066 0.127 -0.042 0.216 -0.155 0.281 -0.267 0.155 -0.262 0.291 -0.539 0.427 -0.816 0.197 -0.384 0.394 -0.783 0.459 -1.214 0.103 -0.656 0.173 -1.322 0.267 -1.983 0.075 -0.492 0.159 -0.984 0.239 -1.472 0.098 -0.614 0.211 -1.223 0.384 -1.819 0.084 -0.281 0.197 -0.558 0.394 -0.778 0.178 -0.178 0.389 -0.305 0.623 -0.328M22.406 22.866c-0.094 0.028 -0.169 0.103 -0.23 0.178 -0.136 0.173 -0.239 0.37 -0.309 0.581 -0.075 0.225 -0.145 0.459 -0.117 0.694 0.005 0.07 0.075 0.122 0.141 0.122 0.127 0.005 0.239 -0.066 0.338 -0.141 0.22 -0.155 0.361 -0.394 0.459 -0.637 0.061 -0.155 0.103 -0.323 0.089 -0.492 -0.009 -0.112 -0.066 -0.23 -0.164 -0.286 -0.061 -0.038 -0.141 -0.042 -0.206 -0.019m4.017 0.525c-0.262 0.047 -0.497 0.202 -0.666 0.408 -0.183 0.22 -0.309 0.488 -0.375 0.769 -0.098 0.398 -0.108 0.82 0 1.219 0.033 0.122 0.089 0.244 0.183 0.333 0.061 0.061 0.145 0.094 0.23 0.098 0.22 0.033 0.427 -0.089 0.595 -0.216 0.211 -0.155 0.347 -0.384 0.431 -0.628 0.052 -0.15 0.019 -0.309 0.005 -0.464 -0.023 -0.314 -0.023 -0.628 -0.005 -0.942 0.005 -0.108 0.038 -0.211 0.038 -0.319 0 -0.084 -0.033 -0.178 -0.112 -0.225 -0.098 -0.061 -0.216 -0.052 -0.323 -0.033m6.267 5.606c-0.225 0.014 -0.45 0.061 -0.661 0.15 -0.23 0.094 -0.427 0.267 -0.525 0.492 -0.066 0.141 -0.094 0.309 -0.023 0.45 0.07 0.145 0.202 0.253 0.347 0.319 0.202 0.089 0.427 0.103 0.637 0.08 0.666 -0.075 1.298 -0.417 1.72 -0.938 0.084 -0.103 0.15 -0.22 0.22 -0.333 0.019 -0.038 0.047 -0.098 0.005 -0.131 -0.052 -0.038 -0.117 -0.023 -0.173 -0.023 -0.239 -0.014 -0.478 -0.038 -0.717 -0.047 -0.277 -0.014 -0.553 -0.038 -0.83 -0.019" style="fill:#fff"/></svg>