<svg width="48px" height="48px" viewBox="0 0 0.96 0.96" xmlns="http://www.w3.org/2000/svg" fill="none"><path fill="#EA4335" d="m0.619 0.323 0.113 -0.09 -0.02 -0.025a0.356 0.356 0 0 0 -0.335 -0.073 0.353 0.353 0 0 0 -0.239 0.245c-0.002 0.007 0.019 -0.006 0.028 -0.003l0.156 -0.026s0.008 -0.007 0.012 -0.012c0.07 -0.076 0.188 -0.086 0.268 -0.021z"/><path fill="#4285F4" d="M0.818 0.378a0.35 0.35 0 0 0 -0.106 -0.17l-0.11 0.109a0.194 0.194 0 0 1 0.072 0.154v0.019c0.054 0 0.098 0.043 0.098 0.097 0 0.054 -0.044 0.097 -0.098 0.097l-0.195 0 -0.019 0.002v0.15l0.019 0.003h0.195a0.254 0.254 0 0 0 0.245 -0.178A0.252 0.252 0 0 0 0.818 0.378z"/><path fill="#34A853" d="M0.283 0.84H0.478v-0.156H0.283c-0.014 0 -0.028 -0.004 -0.04 -0.01l-0.027 0.008 -0.079 0.078 -0.007 0.027a0.255 0.255 0 0 0 0.153 0.052z"/><path fill="#FBBC05" d="M0.283 0.334A0.254 0.254 0 0 0 0.043 0.506a0.253 0.253 0 0 0 0.086 0.281l0.113 -0.113a0.097 0.097 0 0 1 0.026 -0.185 0.098 0.098 0 0 1 0.103 0.056l0.113 -0.113A0.254 0.254 0 0 0 0.283 0.334z"/></svg>