<svg width="48px" height="48px" viewBox="0 0 48 48" role="img" xmlns="http://www.w3.org/2000/svg"><title>HackerRank icon</title><path d="M24 0c2.57 0 19.5 9.772 20.784 12 1.29 2.23 1.29 21.77 0 24S26.574 48 24 48s-19.5 -9.77 -20.79 -12c-1.282 -2.23 -1.282 -21.77 0 -24C4.5 9.772 21.43 0 24 0m4.59 13.598a0.52 0.52 0 0 0 -0.516 0.516v7.75H19.926V13.816h1.402a0.51 0.51 0 0 0 0.508 -0.516 0.52 0.52 0 0 0 -0.246 -0.442L18.446 9.84a0.6 0.6 0 0 0 -0.452 -0.218 0.54 0.54 0 0 0 -0.414 0.214L14.22 12.86a0.52 0.52 0 0 0 -0.24 0.436c0 0.286 0.226 0.516 0.51 0.516h1.408l0.016 20.07c0 0.29 0.222 0.516 0.508 0.516h2.984a0.52 0.52 0 0 0 0.518 -0.512v-8.008h8.146v8.304h-1.398a0.52 0.52 0 0 0 -0.274 0.954l3.158 3.02a0.6 0.6 0 0 0 0.45 0.218 0.52 0.52 0 0 0 0.416 -0.218l3.358 -3.02a0.516 0.516 0 0 0 -0.27 -0.954h-1.408l-0.014 -20.068a0.514 0.514 0 0 0 -0.51 -0.52h-2.988z"/></svg>