<svg width="42px" height="42px" viewBox="0 0 42 42" role="img" xmlns="http://www.w3.org/2000/svg"><path d="M23.595 0a2.397 2.397 0 0 0 -1.682 0.766L12.453 10.896l-6.745 7.221a9.275 9.275 0 0 0 -2.116 3.682 8.75 8.75 0 0 0 -0.219 0.898 9.625 9.625 0 0 0 0.108 4.133 10.5 10.5 0 0 0 0.611 1.78 10.325 10.325 0 0 0 2.224 3.182l7.485 7.338 0.068 0.067c3.934 3.789 10.241 3.733 14.11 -0.13l4.193 -4.186c0.945 -0.945 0.945 -2.474 0.005 -3.421a2.415 2.415 0 0 0 -3.414 -0.005l-4.193 4.186a5.285 5.285 0 0 1 -7.359 0.067l-0.035 -0.033 -7.483 -7.338c-1.141 -1.12 -1.701 -2.571 -1.659 -3.96a4.725 4.725 0 0 1 0.116 -0.915 4.462 4.462 0 0 1 1.083 -2.037L15.978 14.2c1.852 -1.984 5.607 -2.223 7.752 -0.487l6.127 4.954c1.038 0.84 2.557 0.677 3.395 -0.362a2.422 2.422 0 0 0 -0.362 -3.4l-6.125 -4.954c-1.4 -1.132 -3.091 -1.829 -4.854 -2.103l3.526 -3.776A2.422 2.422 0 0 0 23.595 0m-5.016 22.426a2.415 2.415 0 0 0 -2.415 2.418 2.415 2.415 0 0 0 2.415 2.418H36.383a2.415 2.415 0 0 0 2.415 -2.418 2.415 2.415 0 0 0 -2.415 -2.418z"/></svg>